<?xml version="1.0" standalone="no"?>
<!DOCTYPE svg PUBLIC "-//W3C//DTD SVG 20010904//EN"
 "http://www.w3.org/TR/2001/REC-SVG-20010904/DTD/svg10.dtd">
<svg version="1.0" xmlns="http://www.w3.org/2000/svg"
 width="400.000000pt" height="400.000000pt" viewBox="0 0 400.000000 400.000000"
 preserveAspectRatio="xMidYMid meet">
<metadata>
Created by potrace 1.14, written by Peter Selinger 2001-2017
</metadata>
<g transform="translate(0.000000,400.000000) scale(0.100000,-0.100000)"
fill="#000000" stroke="none">
<path d="M1836 2418 c-34 -26 -52 -61 -61 -122 -4 -26 -17 -59 -29 -73 l-22
-26 -200 -1 c-174 -1 -202 -4 -226 -20 -32 -21 -52 -71 -72 -181 -9 -44 -31
-158 -51 -253 -19 -95 -35 -177 -35 -182 0 -13 600 -13 632 -1 52 20 79 67 94
161 2 14 13 68 24 120 10 52 21 106 24 120 2 14 18 93 35 175 30 143 35 168
46 225 3 14 7 38 11 53 l6 28 -74 -2 c-56 -1 -81 -7 -102 -21z m-126 -423 c0
-7 -9 -59 -21 -116 -27 -139 -27 -139 -185 -139 -68 0 -124 1 -124 3 0 1 11
54 24 117 17 81 30 119 44 130 26 21 262 26 262 5z"/>
<path d="M2114 2427 c-28 -14 -61 -65 -67 -102 -3 -16 -24 -120 -46 -230 -23
-110 -44 -213 -47 -230 -3 -16 -9 -48 -14 -70 -5 -22 -12 -56 -15 -75 -3 -19
-12 -63 -20 -98 -8 -35 -15 -66 -15 -69 0 -3 36 -3 80 -1 73 3 82 6 110 33 27
28 34 48 65 196 19 91 36 176 39 190 2 13 21 105 41 204 32 159 43 213 48 250
3 14 -133 16 -159 2z"/>
<path d="M2375 2385 c-17 -9 -36 -24 -43 -35 -16 -26 -42 -139 -34 -144 15 -8
193 -3 198 6 9 15 41 178 35 183 -11 11 -128 3 -156 -10z"/>
<path d="M151 2184 c-16 -7 -36 -23 -45 -36 -12 -19 -41 -129 -59 -228 -3 -14
-13 -63 -23 -110 -9 -47 -18 -109 -18 -137 -1 -46 3 -56 31 -84 26 -27 41 -33
86 -37 60 -5 60 -4 72 64 2 17 21 106 40 198 19 91 35 168 35 170 0 9 59 24
95 25 22 0 52 6 67 12 33 13 67 79 71 135 l2 39 -162 1 c-109 0 -172 -3 -192
-12z"/>
<path d="M582 2185 c-60 -26 -74 -68 -138 -410 -2 -11 -13 -62 -24 -114 -11
-52 -20 -98 -20 -103 0 -5 88 -8 195 -8 183 1 196 3 227 24 33 21 50 56 63
128 l7 34 -122 -1 c-67 0 -124 3 -126 6 -2 4 0 17 4 30 8 22 10 22 212 21 220
-1 255 6 284 51 16 23 60 214 72 308 l6 45 -305 1 c-219 0 -314 -4 -335 -12z
m401 -193 c-11 -29 -24 -32 -161 -32 -133 0 -133 0 -130 23 3 19 10 23 63 27
33 3 99 4 147 2 76 -3 86 -5 81 -20z"/>
<path d="M2600 2182 c-16 -8 -36 -24 -44 -36 -12 -19 -51 -185 -71 -306 -3
-19 -10 -51 -15 -70 -5 -19 -12 -51 -15 -70 -3 -19 -10 -53 -15 -75 -19 -80
-20 -79 69 -72 110 7 137 36 157 162 15 102 56 261 69 275 12 11 44 15 140 17
69 1 125 0 125 -1 0 -2 -20 -102 -45 -222 -25 -119 -45 -222 -45 -227 0 -6 31
-8 81 -4 73 5 83 8 110 36 16 17 29 36 30 43 0 7 2 20 4 28 8 32 59 282 72
350 2 13 11 55 19 93 8 37 14 74 14 81 0 19 -599 18 -640 -2z"/>
<path d="M3363 2188 c-52 -14 -77 -59 -101 -183 -25 -128 -80 -400 -87 -432
l-5 -23 192 0 c176 0 196 2 226 20 37 23 62 72 65 128 l2 37 -120 0 -120 1 3
24 c2 14 6 27 8 29 2 2 95 4 208 4 221 0 251 6 282 52 22 33 85 338 72 346
-14 9 -589 7 -625 -3z m388 -200 c-8 -22 -13 -23 -150 -26 -132 -2 -141 -1
-141 16 0 10 3 22 7 25 3 4 71 7 149 7 l143 0 -8 -22z"/>
<path d="M2287 2173 c-2 -5 -8 -26 -12 -48 -4 -22 -9 -51 -12 -65 -2 -14 -18
-90 -35 -170 -38 -183 -37 -177 -43 -221 -3 -20 -10 -51 -15 -69 -5 -18 -7
-37 -4 -41 3 -5 33 -9 67 -9 100 0 145 39 161 142 3 21 11 59 17 85 6 27 13
59 15 73 2 14 7 36 10 50 4 14 8 34 10 45 1 11 12 64 23 119 12 54 21 102 21
107 0 11 -197 12 -203 2z"/>
</g>
</svg>
