<svg width="150" height="150" viewBox="0 0 150 150" fill="none" xmlns="http://www.w3.org/2000/svg">
<rect width="150" height="150" rx="20" fill="#D6F8FF"/>
<path d="M72.916 21.5864V80.7131C72.916 81.0468 73.0513 81.3502 73.2709 81.5716C73.4904 81.7931 73.7911 81.9296 74.1219 81.9296H92.4749C92.8057 81.9296 93.1095 81.7931 93.326 81.5747C93.5425 81.3532 93.6778 81.0499 93.6778 80.7162V78.3803H84.8065C84.3645 78.3803 84.0036 78.0193 84.0036 77.5704C84.0036 77.1245 84.3615 76.7604 84.8065 76.7604H93.6778V71.8673H88.0844C87.6423 71.8673 87.2815 71.5063 87.2815 71.0574C87.2815 70.6114 87.6393 70.2474 88.0844 70.2474H93.6778V65.2633H88.0844C87.6423 65.2633 87.2815 64.9023 87.2815 64.4533C87.2815 64.0074 87.6393 63.6434 88.0844 63.6434H93.6778V58.7503H88.0844C87.6423 58.7503 87.2815 58.3893 87.2815 57.9403C87.2815 57.4944 87.6393 57.1304 88.0844 57.1304H93.6778V51.9552H84.8065C84.3645 51.9552 84.0036 51.5942 84.0036 51.1452C84.0036 50.6993 84.3615 50.3352 84.8065 50.3352H93.6778V45.0993H88.0844C87.6423 45.0993 87.2815 44.7384 87.2815 44.2894C87.2815 43.8435 87.6393 43.4794 88.0844 43.4794H93.6778V38.4953H88.0844C87.6423 38.4953 87.2815 38.1343 87.2815 37.6854C87.2815 37.2394 87.6393 36.8754 88.0844 36.8754H93.6778V31.9823H88.0844C87.6423 31.9823 87.2815 31.6213 87.2815 31.1724C87.2815 30.7264 87.6393 30.3624 88.0844 30.3624H93.6778V25.1113H84.8065C84.3645 25.1113 84.0036 24.7503 84.0036 24.3014C84.0036 23.8555 84.3615 23.4914 84.8065 23.4914H93.6778V21.5712C93.6778 21.2375 93.5425 20.9342 93.323 20.7127C93.1034 20.4913 92.8027 20.3547 92.4719 20.3547H74.1189C73.7881 20.3547 73.4874 20.4913 73.2678 20.7127C73.0483 20.9342 72.913 21.2375 72.913 21.5712L72.916 21.5864ZM125.097 95.6442H24.9028V103.389C24.9028 105.163 25.6486 106.777 26.8454 107.948C28.0513 109.128 29.7233 109.859 31.5638 109.859H118.43C120.271 109.859 121.943 109.128 123.149 107.948C124.348 106.777 125.091 105.163 125.091 103.389V95.6442H125.097ZM24.9028 94.0274H125.097V36.5781C125.097 34.8065 124.354 33.1988 123.158 32.0278C121.946 30.8447 120.274 30.1076 118.433 30.1015L95.2807 30.0196V31.1815V36.4356H121.513C121.955 36.4356 122.316 36.7965 122.316 37.2455V89.8138C122.316 90.2597 121.958 90.6237 121.513 90.6237H30.1985C29.7564 90.6237 29.3955 90.2627 29.3955 89.8138V37.2455C29.3955 36.7996 29.7534 36.4356 30.1985 36.4356H54.2231L54.2261 36.2839C54.2201 36.1838 54.2352 36.0776 54.2713 35.9775L56.3372 30.1076H31.5668C29.7263 30.1076 28.0543 30.8387 26.8484 32.0187C25.6486 33.1897 24.9058 34.8035 24.9058 36.5781V94.0274H24.9028ZM75 98.1075C76.1518 98.1075 77.1983 98.5655 77.9561 99.3087C78.7199 100.055 79.1921 101.083 79.1921 102.221C79.1921 103.359 78.7199 104.39 77.9561 105.133C77.1983 105.873 76.1518 106.334 75 106.334C73.8482 106.334 72.8017 105.876 72.0439 105.133C71.2801 104.387 70.8079 103.359 70.8079 102.221C70.8079 101.083 71.2801 100.052 72.0439 99.3087C72.8017 98.5686 73.8482 98.1075 75 98.1075ZM77.1201 100.176C76.5788 99.6485 75.83 99.3209 75 99.3209C74.17 99.3209 73.4182 99.6485 72.8799 100.176C72.3446 100.701 72.0108 101.423 72.0108 102.224C72.0108 103.022 72.3416 103.747 72.8799 104.272C73.4212 104.799 74.17 105.127 75 105.127C75.83 105.127 76.5818 104.799 77.1201 104.272C77.6554 103.747 77.9892 103.025 77.9892 102.224C77.9892 101.426 77.6584 100.701 77.1201 100.176ZM51.7362 117.562H54.6502L56.4304 112.286H31.5668C29.0828 112.286 26.8184 111.288 25.1764 109.683C23.5255 108.07 22.5 105.843 22.5 103.389V36.5781C22.5 34.127 23.5255 31.8974 25.1764 30.2835C26.8214 28.6788 29.0828 27.6807 31.5668 27.6807H56.7733C56.9116 27.6807 57.0439 27.705 57.1672 27.7475L57.3506 27.2288C57.3476 27.1256 57.3627 27.0164 57.4018 26.9133L59.8376 20.5246C59.9068 20.288 60.0812 20.0848 60.3308 19.9938C60.7458 19.839 61.2059 20.0544 61.3593 20.4731L63.7019 26.889C63.756 26.9679 63.7951 27.0589 63.8192 27.1529L66.6249 36.2202C66.658 36.3233 66.667 36.4295 66.658 36.5296C66.4234 48.8852 66.4264 61.4956 65.9483 73.8149L65.8551 78.441C65.837 79.3875 65.437 80.2399 64.8085 80.8496C64.18 81.4594 63.32 81.8295 62.3847 81.8113C60.5293 81.7749 58.5776 81.7961 56.7342 81.7021C55.8079 81.6748 54.9749 81.2743 54.3765 80.6494C53.7721 80.0154 53.4082 79.1509 53.4262 78.2074C53.9164 64.8689 53.9615 51.4091 54.1961 38.0494H31.0014V89.0008H120.71V38.0494H95.2807V44.2894V51.1422V57.9373V64.4503V71.0513V77.5643V80.7101C95.2807 81.4867 94.9649 82.1965 94.4567 82.7092L94.4537 82.7122C93.9455 83.2249 93.2448 83.5434 92.4719 83.5434H74.1189C73.346 83.5434 72.6423 83.2249 72.1341 82.7122C71.6259 82.1996 71.3101 81.4897 71.3101 80.7101V21.5833C71.3101 20.8037 71.6259 20.0939 72.1341 19.5812C72.6423 19.0685 73.346 18.75 74.1189 18.75H92.4719C93.2448 18.75 93.9485 19.0685 94.4567 19.5812C94.9649 20.0939 95.2807 20.8037 95.2807 21.5833V24.3135V27.6049L118.433 27.6868C120.923 27.6959 123.188 28.6909 124.827 30.2957C126.475 31.9065 127.5 34.1301 127.5 36.5781V103.389C127.5 105.84 126.475 108.07 124.824 109.683C123.179 111.288 120.917 112.286 118.433 112.286H92.4118L94.1921 117.562H97.3316C98.1766 117.562 98.9435 117.91 99.4998 118.469V118.475C100.056 119.036 100.399 119.806 100.399 120.656C100.399 121.505 100.053 122.279 99.4998 122.837L99.4938 122.843C98.9374 123.404 98.1736 123.75 97.3316 123.75H51.7392C50.8972 123.75 50.1303 123.401 49.577 122.843L49.571 122.837C49.0146 122.276 48.6718 121.505 48.6718 120.656C48.6718 119.803 49.0176 119.03 49.571 118.469H49.577C50.1333 117.907 50.8972 117.562 51.7392 117.562H51.7362ZM56.3402 117.562H92.502L90.7217 112.286H58.1205L56.3402 117.562ZM97.3316 119.988H51.7392C51.5557 119.988 51.3903 120.064 51.27 120.183L51.2731 120.186C51.1528 120.307 51.0776 120.474 51.0776 120.659C51.0776 120.844 51.1528 121.011 51.27 121.132C51.3903 121.253 51.5557 121.326 51.7392 121.326H97.3316C97.515 121.326 97.6804 121.25 97.8007 121.132C97.921 121.011 97.9932 120.844 97.9932 120.659C97.9932 120.474 97.918 120.307 97.8007 120.186L97.7977 120.189C97.6774 120.067 97.512 119.991 97.3286 119.991L97.3316 119.988ZM64.2582 78.4198L64.3364 74.5945L55.0982 74.4064C55.0712 75.6835 55.0682 76.9849 55.0201 78.259C55.014 78.7535 55.2095 79.2085 55.5283 79.5422C55.847 79.8759 56.2861 80.0882 56.7763 80.1034C58.6528 80.1337 60.5323 80.1762 62.4088 80.2126C62.908 80.2217 63.3651 80.0245 63.6989 79.6999C64.0357 79.3753 64.2492 78.9203 64.2582 78.4228V78.4198ZM64.7664 35.6468L62.4479 28.1509L58.755 28.0751L56.1508 35.4709L64.7664 35.6468ZM59.2843 26.4764L61.8585 26.528L60.5894 23.0516L59.2843 26.4764ZM59.0196 37.1424L58.34 72.8623L61.0044 72.9169L61.684 37.197L59.0196 37.1424ZM56.7432 72.829L57.4228 37.109L55.8109 37.0756L55.1313 72.7956L56.7432 72.829ZM63.2809 37.2273L62.6012 72.9473L64.3695 72.9837L65.0491 37.2637L63.2839 37.2273H63.2809Z" fill="#624EC1"/>
</svg>
