<svg width="150" height="150" viewBox="0 0 150 150" fill="none" xmlns="http://www.w3.org/2000/svg">
<rect width="150" height="150" rx="20" fill="#D6F8FF"/>
<path fill-rule="evenodd" clip-rule="evenodd" d="M22.6283 28.5C18.4257 28.5 15 31.6296 15 35.4405V87.5098V96.3243C15 100.135 18.4257 103.265 22.6283 103.265H60.2803V118.293H43.0571C42.587 118.293 42.1361 118.462 41.8036 118.762C41.4712 119.063 41.2844 119.471 41.2844 119.896C41.2844 120.322 41.4712 120.73 41.8036 121.03C42.1361 121.331 42.587 121.5 43.0571 121.5H106.943C107.176 121.5 107.406 121.459 107.621 121.378C107.836 121.297 108.032 121.179 108.196 121.03C108.361 120.881 108.491 120.705 108.581 120.51C108.67 120.316 108.716 120.107 108.716 119.896C108.716 119.686 108.67 119.477 108.581 119.283C108.491 119.088 108.361 118.911 108.196 118.762C108.032 118.614 107.836 118.495 107.621 118.415C107.406 118.334 107.176 118.293 106.943 118.293H89.7196V103.265H127.372C131.574 103.265 135 100.135 135 96.3243V87.5098V44.255V35.4405C135 31.6296 131.574 28.5 127.372 28.5H22.6283ZM22.6283 31.7072H127.372C129.657 31.7072 131.454 33.3381 131.454 35.4405V44.255V87.5098V96.3243C131.454 98.4267 129.657 100.058 127.372 100.058H22.6283C20.343 100.058 18.5455 98.4267 18.5455 96.3243V87.5098V35.4405C18.5455 35.3089 18.5525 35.1795 18.5689 35.0521C18.7746 33.1407 20.4858 31.7072 22.6283 31.7072ZM64.5465 50.9942C64.0763 50.9943 63.6255 51.1632 63.293 51.464C62.9606 51.7647 62.7738 52.1725 62.7738 52.5978V58.0732C61.1394 58.5769 59.5452 59.1795 58.0005 59.8784L53.7423 56.0085C53.5776 55.8588 53.3818 55.74 53.1662 55.659C52.9505 55.5779 52.7194 55.5362 52.4859 55.5362C52.2524 55.5362 52.0212 55.5779 51.8056 55.659C51.59 55.74 51.3942 55.8588 51.2294 56.0085L36.4466 69.4433C36.116 69.7439 35.9303 70.1506 35.9303 70.5746C35.9303 70.9986 36.116 71.4053 36.4466 71.7059L40.7128 75.583C39.941 76.9904 39.2758 78.4426 38.7204 79.9316H32.7053C32.2351 79.9316 31.7843 80.1006 31.4518 80.4014C31.1194 80.7021 30.9326 81.11 30.9326 81.5353V92.0037C30.9326 92.2143 30.9784 92.4229 31.0675 92.6174C31.1566 92.812 31.2872 92.9888 31.4518 93.1377C31.6164 93.2866 31.8118 93.4047 32.0269 93.4853C32.242 93.5659 32.4725 93.6074 32.7053 93.6074C32.9381 93.6074 33.1686 93.5659 33.3837 93.4853C33.5988 93.4047 33.7942 93.2866 33.9588 93.1377C34.1235 92.9888 34.254 92.812 34.3431 92.6174C34.4322 92.4229 34.4781 92.2143 34.478 92.0037V83.1389H40.0047C40.3861 83.1389 40.7574 83.0276 41.0634 82.8216C41.3693 82.6155 41.5937 82.3257 41.7031 81.9952C42.3873 79.9289 43.302 77.9318 44.4336 76.0351C44.6145 75.732 44.6827 75.3842 44.628 75.0432C44.5734 74.7023 44.3988 74.3863 44.1302 74.1421L40.2046 70.5746L52.4861 59.413L56.4002 62.97C56.6707 63.2159 57.022 63.3758 57.4014 63.4258C57.7809 63.4758 58.168 63.4132 58.5047 63.2473C60.5909 62.2193 62.7873 61.3883 65.0596 60.7671C65.424 60.6675 65.7432 60.4644 65.9701 60.1879C66.197 59.9115 66.3195 59.5763 66.3195 59.232V54.2018H83.681V59.2252C83.681 59.57 83.8039 59.9056 84.0314 60.1823C84.2589 60.4589 84.579 60.6619 84.9441 60.7611C87.221 61.3793 89.4223 62.2082 91.5133 63.2348C91.8499 63.4001 92.2366 63.4623 92.6155 63.4122C92.9944 63.362 93.3452 63.2023 93.6154 62.9568L97.5144 59.4135L109.796 70.575L105.885 74.129C105.617 74.3729 105.443 74.6883 105.388 75.0288C105.333 75.3692 105.4 75.7167 105.58 76.0197C106.71 77.9208 107.623 79.9224 108.304 81.9929C108.413 82.3241 108.637 82.6146 108.943 82.8212C109.249 83.0277 109.621 83.1393 110.003 83.1394H115.522V92.0042C115.522 92.2148 115.568 92.4233 115.657 92.6179C115.746 92.8124 115.877 92.9892 116.041 93.1381C116.206 93.287 116.401 93.4052 116.616 93.4858C116.832 93.5664 117.062 93.6078 117.295 93.6078C117.528 93.6078 117.758 93.5664 117.973 93.4858C118.188 93.4052 118.384 93.287 118.548 93.1381C118.713 92.9892 118.844 92.8124 118.933 92.6179C119.022 92.4233 119.068 92.2148 119.068 92.0042V81.5358C119.068 81.1105 118.881 80.7026 118.548 80.4018C118.216 80.1011 117.765 79.9321 117.295 79.932H111.29C110.736 78.4388 110.072 76.9826 109.301 75.5712L113.554 71.7063C113.884 71.4058 114.07 70.999 114.07 70.575C114.07 70.151 113.884 69.7443 113.554 69.4437L98.7708 56.0089C98.6061 55.8592 98.4103 55.7404 98.1946 55.6594C97.979 55.5783 97.7478 55.5366 97.5143 55.5366C97.2808 55.5366 97.0496 55.5783 96.834 55.6594C96.6184 55.7404 96.4226 55.8592 96.2579 56.0089L92.0132 59.8665C90.4639 59.1683 88.8653 58.5665 87.2265 58.0646V52.5983C87.2264 52.173 87.0396 51.7651 86.7072 51.4644C86.3748 51.1637 85.9239 50.9947 85.4538 50.9947L64.5465 50.9942ZM74.9978 75.5888C65.6228 75.5888 57.9929 82.5277 57.9929 91.0356C57.9929 91.0346 57.9929 91.0367 57.9929 91.0356C57.9936 91.3999 58.0085 91.7671 58.0398 92.1303C58.0738 92.5545 58.2927 92.9491 58.6483 93.2273C59.0039 93.5055 59.4671 93.6445 59.9361 93.6137C60.1683 93.5985 60.3949 93.5421 60.603 93.4476C60.811 93.3532 60.9965 93.2226 61.1488 93.0633C61.3011 92.904 61.4172 92.7191 61.4905 92.5193C61.5638 92.3194 61.5929 92.1084 61.5761 91.8983C61.5526 91.6105 61.5448 91.3226 61.537 91.0338C61.5381 84.2521 67.5471 78.7962 74.9964 78.7962C82.4456 78.7962 88.4547 84.252 88.4557 91.0338C88.4551 91.3224 88.4401 91.611 88.4166 91.8985C88.3827 92.3227 88.5364 92.7417 88.844 93.0633C89.1515 93.385 89.5878 93.583 90.0567 93.6137C90.2889 93.6289 90.5221 93.6026 90.7431 93.5363C90.964 93.47 91.1684 93.365 91.3445 93.2272C91.5206 93.0894 91.6649 92.9217 91.7693 92.7334C91.8737 92.5452 91.9361 92.3402 91.9529 92.1302C91.9842 91.7673 91.9999 91.4028 91.9999 91.0386C91.9999 91.0376 91.9999 91.0396 91.9999 91.0386C91.9999 82.5307 84.3728 75.5888 74.9978 75.5888ZM63.8257 103.265H86.1742V118.293H63.8257V103.265Z" fill="#624EC1"/>
</svg>
